<svg width="10" height="6" viewBox="0 0 10 6" fill="none" xmlns="http://www.w3.org/2000/svg">
<path d="M4.19433e-05 0.930851C-0.000273721 0.875753 0.0102177 0.821134 0.0309152 0.770126C0.0516138 0.719117 0.0821123 0.672723 0.120661 0.633604C0.159326 0.594363 0.205327 0.563218 0.256011 0.541963C0.306695 0.520708 0.361058 0.509765 0.415965 0.509765C0.470872 0.509765 0.525235 0.520708 0.575919 0.541963C0.626603 0.563218 0.672605 0.594364 0.711269 0.633604L4.10936 4.05405C4.34331 4.28925 4.66045 4.42136 4.99111 4.42136C5.32177 4.42136 5.63891 4.28925 5.87287 4.05405L9.27096 0.633604C9.34928 0.554769 9.4555 0.51048 9.56626 0.51048C9.67702 0.51048 9.78325 0.554769 9.86157 0.633604C9.93989 0.712439 9.98389 0.819362 9.98389 0.930852C9.98389 1.04234 9.93989 1.14926 9.86157 1.2281L6.46348 4.64854C6.2703 4.84348 6.04081 4.99815 5.78816 5.10368C5.53551 5.2092 5.26465 5.26352 4.99111 5.26352C4.71757 5.26352 4.44672 5.2092 4.19407 5.10368C3.94141 4.99815 3.71193 4.84348 3.51875 4.64854L0.120661 1.2281C0.0821123 1.18898 0.0516138 1.14259 0.0309152 1.09158C0.0102176 1.04057 -0.000273725 0.98595 4.19433e-05 0.930851Z" fill="#727272"/>
</svg>
