<svg width="11" height="10" viewBox="0 0 11 10" fill="none" xmlns="http://www.w3.org/2000/svg">
<g clip-path="url(#clip0_27_282)">
<path d="M2.93061 9.98189C2.87551 9.98221 2.82089 9.97172 2.76988 9.95102C2.71887 9.93032 2.67248 9.89982 2.63336 9.86127C2.59412 9.82261 2.56297 9.77661 2.54172 9.72592C2.52046 9.67524 2.50952 9.62088 2.50952 9.56597C2.50952 9.51106 2.52046 9.4567 2.54172 9.40601C2.56297 9.35533 2.59412 9.30933 2.63336 9.27066L6.0538 5.87258C6.289 5.63862 6.42112 5.32148 6.42112 4.99082C6.42112 4.66016 6.289 4.34302 6.0538 4.10906L2.63336 0.710976C2.55453 0.632657 2.51024 0.526432 2.51024 0.415671C2.51024 0.30491 2.55453 0.198686 2.63336 0.120366C2.71219 0.0420465 2.81912 -0.00195312 2.93061 -0.00195312C3.0421 -0.00195313 3.14902 0.0420465 3.22786 0.120366L6.6483 3.51845C6.84324 3.71163 6.9979 3.94112 7.10343 4.19377C7.20896 4.44642 7.26328 4.71728 7.26328 4.99082C7.26328 5.26436 7.20896 5.53521 7.10343 5.78787C6.9979 6.04052 6.84324 6.27001 6.6483 6.46319L3.22786 9.86127C3.18874 9.89982 3.14234 9.93032 3.09133 9.95102C3.04033 9.97172 2.98571 9.98221 2.93061 9.98189Z" fill="#243E2A"/>
</g>
<defs>
<clipPath id="clip0_27_282">
<rect width="10.0478" height="9.98214" fill="white"/>
</clipPath>
</defs>
</svg>
