<svg width="36" height="38" viewBox="0 0 36 38" fill="none" xmlns="http://www.w3.org/2000/svg">
<path d="M34.9266 6.33184C34.494 5.80758 33.9525 5.38594 33.3404 5.09687C32.7284 4.80779 32.0608 4.65836 31.3852 4.65919H6.52307L6.45848 4.11406C6.32631 2.98098 5.78708 1.93625 4.94303 1.17796C4.09898 0.419674 3.00877 0.000530827 1.87911 0L1.53773 0C1.1299 0 0.738773 0.163626 0.450392 0.454882C0.162011 0.746137 0 1.14117 0 1.55306C0 1.96496 0.162011 2.35999 0.450392 2.65124C0.738773 2.9425 1.1299 3.10613 1.53773 3.10613H1.87911C2.25575 3.10618 2.61928 3.24583 2.90074 3.49861C3.1822 3.75138 3.36201 4.0997 3.40608 4.47748L5.522 22.6483C5.74167 24.5381 6.64067 26.2806 8.04836 27.5451C9.45605 28.8097 11.2744 29.5082 13.1584 29.5082H29.2169C29.6248 29.5082 30.0159 29.3446 30.3043 29.0533C30.5927 28.7621 30.7547 28.367 30.7547 27.9551C30.7547 27.5432 30.5927 27.1482 30.3043 26.857C30.0159 26.5657 29.6248 26.4021 29.2169 26.4021H13.1584C12.2066 26.3994 11.279 26.0994 10.5026 25.5433C9.72628 24.9872 9.13923 24.2022 8.82198 23.2959H27.1518C28.9544 23.2961 30.6998 22.6564 32.083 21.4889C33.4662 20.3213 34.3992 18.7 34.719 16.9082L35.9261 10.1462C36.0466 9.47525 36.0195 8.78578 35.8468 8.12662C35.674 7.46745 35.3599 6.85472 34.9266 6.33184ZM32.9075 9.59482L31.6989 16.3569C31.5068 17.4331 30.9461 18.4069 30.1148 19.1076C29.2835 19.8084 28.2346 20.1915 27.1518 20.1898H8.33298L6.88597 7.76531H31.3852C31.611 7.76395 31.8345 7.81287 32.0395 7.90859C32.2446 8.00431 32.4262 8.14449 32.5716 8.31915C32.7169 8.49381 32.8223 8.69866 32.8804 8.91914C32.9385 9.13962 32.9477 9.37032 32.9075 9.59482Z" fill="#EFEAE6"/>
<path d="M10.6232 37.1803C12.2529 37.1803 13.574 35.727 13.574 33.9344C13.574 32.1417 12.2529 30.6885 10.6232 30.6885C8.99349 30.6885 7.67236 32.1417 7.67236 33.9344C7.67236 35.727 8.99349 37.1803 10.6232 37.1803Z" fill="#EFEAE6"/>
<path d="M26.2625 37.1803C28.0552 37.1803 29.5084 35.727 29.5084 33.9344C29.5084 32.1417 28.0552 30.6885 26.2625 30.6885C24.4698 30.6885 23.0166 32.1417 23.0166 33.9344C23.0166 35.727 24.4698 37.1803 26.2625 37.1803Z" fill="#EFEAE6"/>
</svg>
