<svg width="20" height="21" viewBox="0 0 20 21" fill="none" xmlns="http://www.w3.org/2000/svg">
<g clip-path="url(#clip0_23_119)">
<path d="M10 2.46841C12.67 2.46841 12.9867 2.47841 14.0408 2.52675C15.1308 2.57675 16.2533 2.82508 17.0475 3.61925C17.8492 4.42091 18.09 5.53258 18.14 6.62591C18.1883 7.68008 18.1983 7.99675 18.1983 10.6667C18.1983 13.3367 18.1883 13.6534 18.14 14.7076C18.0908 15.7917 17.8367 16.9251 17.0475 17.7142C16.2458 18.5159 15.135 18.7567 14.0408 18.8067C12.9867 18.8551 12.67 18.8651 10 18.8651C7.33 18.8651 7.01333 18.8551 5.95917 18.8067C4.88333 18.7576 3.735 18.4976 2.9525 17.7142C2.155 16.9167 1.91 15.7942 1.86 14.7076C1.81167 13.6534 1.80167 13.3367 1.80167 10.6667C1.80167 7.99675 1.81167 7.68008 1.86 6.62591C1.90917 5.54591 2.16583 4.40591 2.9525 3.61925C3.7525 2.81925 4.86833 2.57675 5.95917 2.52675C7.01333 2.47841 7.33 2.46841 10 2.46841ZM10 0.666748C7.28417 0.666748 6.94333 0.678415 5.87667 0.726748C4.33083 0.797581 2.79583 1.22758 1.67833 2.34508C0.556667 3.46675 0.130833 4.99841 0.06 6.54341C0.0116667 7.61008 0 7.95091 0 10.6667C0 13.3826 0.0116667 13.7234 0.06 14.7901C0.130833 16.3342 0.5625 17.8734 1.67833 18.9884C2.79917 20.1092 4.33333 20.5359 5.87667 20.6067C6.94333 20.6551 7.28417 20.6667 10 20.6667C12.7158 20.6667 13.0567 20.6551 14.1233 20.6067C15.6683 20.5359 17.205 20.1051 18.3217 18.9884C19.4442 17.8659 19.8692 16.3351 19.94 14.7901C19.9883 13.7234 20 13.3826 20 10.6667C20 7.95091 19.9883 7.61008 19.94 6.54341C19.8692 4.99758 19.4383 3.46175 18.3217 2.34508C17.2025 1.22591 15.6642 0.796748 14.1233 0.726748C13.0567 0.678415 12.7158 0.666748 10 0.666748Z" fill="white"/>
<path d="M10 5.53174C7.16416 5.53174 4.865 7.83091 4.865 10.6667C4.865 13.5026 7.16416 15.8017 10 15.8017C12.8358 15.8017 15.135 13.5026 15.135 10.6667C15.135 7.83091 12.8358 5.53174 10 5.53174ZM10 14.0001C8.15916 14.0001 6.66666 12.5076 6.66666 10.6667C6.66666 8.82591 8.15916 7.33341 10 7.33341C11.8408 7.33341 13.3333 8.82591 13.3333 10.6667C13.3333 12.5076 11.8408 14.0001 10 14.0001Z" fill="white"/>
<path d="M15.3383 6.52842C16.0011 6.52842 16.5383 5.99116 16.5383 5.32842C16.5383 4.66568 16.0011 4.12842 15.3383 4.12842C14.6756 4.12842 14.1383 4.66568 14.1383 5.32842C14.1383 5.99116 14.6756 6.52842 15.3383 6.52842Z" fill="white"/>
</g>
<defs>
<clipPath id="clip0_23_119">
<rect width="20" height="20" fill="white" transform="translate(0 0.666748)"/>
</clipPath>
</defs>
</svg>
