<?xml version="1.0" encoding="UTF-8"?><svg id="Capa_2" xmlns="http://www.w3.org/2000/svg" viewBox="0 0 116.88 100.36"><defs><style>.cls-1{fill:#ede9e5;}</style></defs><g id="Capa_1-2"><path class="cls-1" d="m62.01,65.24c-.12,8.35-6.51,16.03-14.8,17.87,0,0-.85-4.93-.85-4.93,3.23-.29,6.44-1.69,8.93-4.03,2.51-2.32,4.28-5.54,4.86-9.08l1.86.17h0Z"/><path class="cls-1" d="m50.07,100.36l-.59-1.89s-3.25-10.65-4.6-15.08c-.51.03-1.01.04-1.52.03-.75-.01-1.45-.12-2.04-.22-8.11-1.4-11.46.82-11.91,1.16-3.65,4.01-8.85,5.99-14.28,5.43-7.75-.8-14.05-6.98-14.99-14.7-.32-2.65-.04-5.25.83-7.73l.2-.56.43-.41,21.01-21.4c.35-3.53,2.19-22.42,2.42-24.82l.1-1.03.8-.66c6.47-5.31,14.27-8.34,22.6-8.8C55.44,3.9,64.15.49,73.15.05h0c1.46-.07,2.94-.07,4.41.01,21.11,1.16,37.98,17.95,39.24,39.05.58,9.76-2.12,19.08-7.81,26.95l-.1.13c-.18.22-4.56,5.51-8.37,8.64-.98.81-2.34.88-3.4.17-1.06-.71-1.51-2-1.14-3.21.36-1.16,1.01-3.38,1.36-5.15.52-2.61,1.01-8.81,1.01-11.7,0-15.45-7.95-28.01-17.73-28.01-4.15,0-8.2,2.37-11.42,6.68-.66.89-1.28,1.85-1.86,2.87l29.31,42.34-1.44,1.48c-11.5,11.75-26.84,18.83-43.19,19.93l-1.97.13Zm-1.64-22.54l.64,2.14c.02.05,3.25,10.67,4.61,15.12,13.71-1.36,26.54-7.28,36.52-16.83l-28.65-41.38.66-1.32c.88-1.78,1.9-3.44,3.01-4.93,4.19-5.6,9.66-8.69,15.43-8.69,12.53,0,22.73,14.81,22.73,33.01,0,2.67-.35,7.61-.82,10.91,1.27-1.4,2.22-2.52,2.44-2.79,4.98-6.91,7.33-15.08,6.82-23.65-1.11-18.57-15.95-33.34-34.52-34.36-1.3-.07-2.61-.07-3.9-.01h0c-8.17.4-16.08,3.59-22.26,8.97l-.67.58-.89.03c-7.21.24-14,2.68-19.68,7.07-.51,5.23-2.38,24.34-2.38,24.34l-.12,1.19-21.88,22.29c-.48,1.59-.62,3.26-.42,4.96.66,5.42,5.09,9.77,10.54,10.33,3.89.4,7.58-1.03,10.16-3.92l.12-.13c.47-.46,4.95-4.44,16.25-2.49.43.07.88.14,1.28.15.95.01,1.88-.06,2.78-.22l2.2-.39Z"/><path class="cls-1" d="m40.48,22.01c1.72-4.23,4.22-8.26,7.4-11.8l3.29,3.76c-3.51,2.31-6.7,5.29-9.34,8.81l-1.36-.77h0Z"/><path class="cls-1" d="m84.84,63.53c-.21,0-.42-.02-.64-.07-.78-.18-1.44-.68-1.86-1.41-.46-.79-.59-1.76-.37-2.71.56-4.44-.34-9.28-2.54-13.66-2.87-5.68-8.51-9.96-12.82-11.67l-2.97-1.18,1.85-2.6c1.7-2.38,3.82-4.32,6.33-5.77,1.86-1.08,3.87-1.85,5.99-2.29l1.43-.3.96,1.1c3.65,4.19,6.32,8.95,7.93,14.15,1.17,3.76,1.76,7.68,1.76,11.65s-.66,8.27-1.95,12.23c-.47,1.51-1.75,2.52-3.12,2.52Zm-13.27-32.68c5.15,2.87,9.79,7.55,12.33,12.58.29.58.57,1.17.82,1.76-.23-2.23-.68-4.43-1.35-6.57-1.26-4.06-3.26-7.81-5.95-11.18-1.08.33-2.11.79-3.09,1.35-1,.58-1.93,1.27-2.77,2.06Z"/></g></svg>