<?xml version="1.0" encoding="UTF-8"?><svg id="Capa_2" xmlns="http://www.w3.org/2000/svg" viewBox="0 0 232.4 37.55"><defs><style>.cls-1{fill:#ede9e5;}</style></defs><g id="Capa_1-2"><path class="cls-1" d="m25.75,25.15c0,6.75-5.75,12.4-12.85,12.4-4.1,0-7.7-1.8-10.1-4.65l4.35-2.75c1.5,1.45,3.1,2.85,5.65,2.85,5.2,0,7.55-3.75,8-7.85v-2.9s-2.85,3.55-7.9,3.55C5.75,25.8,0,20.05,0,12.95S5.75,0,12.9,0c5.05,0,7.9,3.45,7.9,3.45V.55h4.95v24.6Zm-5.1-12.3c0-4.6-3.45-8.35-7.7-8.35s-7.65,3.75-7.65,8.35,3.4,8.4,7.65,8.4,7.7-3.75,7.7-8.4Z"/><path class="cls-1" d="m46.45.2v5.2c-.75-.2-1.5-.25-2.1-.25-3.6,0-6.95,1.7-6.95,6.65v13.75h-4.95V.55h4.95v2.3c1.25-1.7,3.5-2.8,6.95-2.8.7,0,1.4.05,2.1.15Z"/><path class="cls-1" d="m68,19.1h5.9c-2.05,4.15-6.2,6.95-11.15,6.95-7.2,0-12.8-5.85-12.8-12.95S55.55.1,62.75.1s12.6,5.85,12.6,13c0,.65-.05,1.3-.15,1.9h-20c.75,3.8,3.75,6.6,7.45,6.6,2.15,0,4-.9,5.35-2.5Zm-12.7-8.15h14.55c-.8-3.6-3.6-6.25-7.2-6.25s-6.5,2.65-7.35,6.25Z"/><path class="cls-1" d="m98.5,19.1h5.9c-2.05,4.15-6.2,6.95-11.15,6.95-7.2,0-12.8-5.85-12.8-12.95S86.05.1,93.25.1s12.6,5.85,12.6,13c0,.65-.05,1.3-.15,1.9h-20c.75,3.8,3.75,6.6,7.45,6.6,2.15,0,4-.9,5.35-2.5Zm-12.7-8.15h14.55c-.8-3.6-3.6-6.25-7.2-6.25s-6.5,2.65-7.35,6.25Z"/><path class="cls-1" d="m133.35,11.3v14.25h-4.95v-14.25c0-4.65-3.45-6.15-5.45-6.15-3.6,0-6.95,1.7-6.95,6.65v13.75h-4.95V.55h4.95v2.3c1.25-1.7,3.5-2.8,6.95-2.8,4.6,0,10.4,2.4,10.4,11.25Z"/><path class="cls-1" d="m175.15.55l-11.75,25.5h-1.2l-6.75-14.9-6.8,14.9h-1.2L135.65.55h5.15l7.25,15.55,6.9-15.55h1l6.8,15.5,7.25-15.5h5.15Z"/><path class="cls-1" d="m197.45,25.55v-3s-2.5,3.45-8,3.45c-7.15,0-12.95-5.8-12.95-12.85S182.3.25,189.45.25c5.5,0,8,3.45,8,3.45V.55h4.85v25h-4.85Zm-7.9-3.9c4.35,0,7.8-3.8,7.8-8.4s-3.45-8.5-7.8-8.5-7.8,3.85-7.8,8.5,3.45,8.4,7.8,8.4Z"/><path class="cls-1" d="m232.4.45l-17.2,37.1h-5.4l8.05-17.35L206.75.45h5.55l8.05,14.35,6.65-14.35h5.4Z"/></g></svg>